<svg width="20" height="20" viewBox="0 0 20 20" fill="none" xmlns="http://www.w3.org/2000/svg">
<g id="tiktok">
<path id="vector" d="M5.28063 12.3707C5.3783 11.562 5.70996 11.1092 6.33498 10.6451C7.22927 10.0165 8.34636 10.3721 8.34636 10.3721V8.26259C8.61794 8.25565 8.88962 8.27175 9.15824 8.31069V11.0254C9.15824 11.0254 8.04148 10.6698 7.1472 11.2987C6.52252 11.7626 6.19017 12.2157 6.09284 13.0244C6.08979 13.4635 6.1722 14.0375 6.55169 14.5338C6.45786 14.4857 6.36223 14.4309 6.26478 14.3693C5.42883 13.808 5.27656 12.9658 5.28063 12.3707ZM13.7708 4.36217C13.1556 3.68805 12.9229 3.00742 12.8388 2.5293H13.6127C13.6127 2.5293 13.4584 3.78296 14.583 5.01581L14.5986 5.03239C14.2955 4.84174 14.0175 4.6167 13.7708 4.36217ZM17.4988 6.27337V8.93346C17.4988 8.93346 16.5113 8.89478 15.7804 8.70886C14.76 8.44883 14.1041 8.05002 14.1041 8.05002C14.1041 8.05002 13.651 7.76561 13.6144 7.74578V13.2389C13.6144 13.5447 13.5306 14.3086 13.2753 14.9456C12.9419 15.779 12.4275 16.3261 12.3328 16.4379C12.3328 16.4379 11.7071 17.1773 10.6033 17.6753C9.60827 18.1245 8.73467 18.1131 8.47354 18.1245C8.47354 18.1245 6.96339 18.1843 5.6045 17.3012C5.31064 17.1065 5.03635 16.8861 4.78516 16.6426L4.79194 16.6475C6.15117 17.5306 7.66098 17.4708 7.66098 17.4708C7.92245 17.4595 8.79605 17.4708 9.79072 17.0216C10.8936 16.5237 11.5203 15.7842 11.5203 15.7842C11.6139 15.6724 12.1307 15.1254 12.4627 14.2917C12.7174 13.6549 12.8019 12.8908 12.8019 12.5849V7.09246C12.8385 7.11262 13.2912 7.39702 13.2912 7.39702C13.2912 7.39702 13.9474 7.79616 14.9679 8.05587C15.699 8.24179 16.6863 8.28047 16.6863 8.28047V6.19602C17.024 6.27175 17.3119 6.29223 17.4988 6.27337Z" fill="#EE1D52"/>
<path id="vector_2" d="M16.6861 6.19602V8.27982C16.6861 8.27982 15.6989 8.24114 14.9677 8.05522C13.9473 7.79519 13.2911 7.39637 13.2911 7.39637C13.2911 7.39637 12.8383 7.11196 12.8017 7.09181V12.5856C12.8017 12.8914 12.7179 13.6556 12.4626 14.2923C12.1292 15.126 11.6147 15.6731 11.5201 15.7849C11.5201 15.7849 10.8941 16.5243 9.79055 17.0223C8.79588 17.4715 7.92228 17.4601 7.66081 17.4715C7.66081 17.4715 6.151 17.5313 4.79177 16.6482L4.78498 16.6433C4.64148 16.5043 4.5064 16.3576 4.3804 16.2038C3.94665 15.675 3.68078 15.0496 3.61397 14.8712C3.61385 14.8704 3.61385 14.8697 3.61397 14.8689C3.50646 14.5588 3.2806 13.8142 3.31146 13.0929C3.36606 11.8204 3.81372 11.0394 3.93207 10.8437C4.24553 10.3101 4.65322 9.83269 5.137 9.43271C5.56391 9.08757 6.04779 8.81295 6.56881 8.62013C7.13205 8.39373 7.73517 8.27238 8.34585 8.26259V10.3721C8.34585 10.3721 7.22876 10.0178 6.33481 10.6451C5.70979 11.1092 5.37812 11.562 5.28045 12.3707C5.27638 12.9658 5.42865 13.808 6.26393 14.3697C6.36138 14.4314 6.45701 14.4863 6.55084 14.5341C6.69676 14.7238 6.87437 14.8891 7.07649 15.0233C7.89244 15.5398 8.57612 15.5759 9.4504 15.2404C10.0334 15.0162 10.4722 14.5107 10.6757 13.9507C10.8035 13.601 10.8018 13.2489 10.8018 12.8849V2.5293H12.8366C12.9207 3.00742 13.1534 3.68805 13.7685 4.36217C14.0153 4.6167 14.2933 4.84174 14.5964 5.03239C14.6859 5.12503 15.1437 5.583 15.7314 5.86416C16.0353 6.00949 16.3556 6.12084 16.6861 6.19602Z" fill="black"/>
<path id="vector_3" d="M2.80469 14.2227V14.2243L2.85518 14.3611C2.84938 14.3452 2.83061 14.2968 2.80469 14.2227Z" fill="#69C9D0"/>
<path id="vector_4" d="M6.57051 8.61941C6.0495 8.81224 5.56561 9.08685 5.1387 9.432C4.65477 9.83288 4.24718 10.3113 3.93411 10.8459C3.81576 11.0409 3.3681 11.8226 3.3135 13.0951C3.28264 13.8164 3.5085 14.5611 3.61601 14.8711C3.61589 14.8719 3.61589 14.8727 3.61601 14.8734C3.68383 15.0502 3.94869 15.6756 4.38244 16.2061C4.50844 16.3598 4.64352 16.5065 4.78702 16.6455C4.32723 16.3407 3.91716 15.9722 3.57023 15.5521C3.14021 15.0278 2.87501 14.4089 2.80583 14.2263C2.80574 14.225 2.80574 14.2237 2.80583 14.2224V14.2201C2.69798 13.9103 2.47144 13.1654 2.50298 12.4431C2.55758 11.1706 3.00523 10.3896 3.12359 10.1939C3.43657 9.65922 3.84417 9.18079 4.32818 8.77998C4.755 8.43471 5.23891 8.16009 5.75999 7.96739C6.08501 7.83814 6.42361 7.74279 6.76992 7.68299C7.29183 7.59567 7.82487 7.5881 8.34925 7.66056V8.26187C7.738 8.27146 7.13427 8.39281 6.57051 8.61941Z" fill="#69C9D0"/>
<path id="vector_5" d="M12.8418 2.52897H10.807V12.8849C10.807 13.2489 10.807 13.6 10.6809 13.9507C10.4754 14.5104 10.0382 15.0158 9.45561 15.2401C8.58099 15.5768 7.8973 15.5395 7.0817 15.023C6.87923 14.8894 6.70116 14.7246 6.55469 14.5354C7.24957 14.8907 7.87153 14.8845 8.64203 14.5881C9.22432 14.3638 9.66214 13.8584 9.86697 13.2984C9.99516 12.9486 9.99347 12.5966 9.99347 12.2329V1.875H12.8032C12.8032 1.875 12.7716 2.13243 12.8418 2.52897ZM16.6896 5.6194V6.19569C16.3597 6.12039 16.04 6.00904 15.7366 5.86383C15.1489 5.58267 14.6911 5.1247 14.6016 5.03206C14.7055 5.09744 14.8133 5.15691 14.9244 5.21018C15.639 5.55212 16.3427 5.65418 16.6896 5.6194Z" fill="#69C9D0"/>
</g>
</svg>
